<?xml version="1.0" standalone="no"?><!DOCTYPE svg PUBLIC "-//W3C//DTD SVG 1.1//EN" "http://www.w3.org/Graphics/SVG/1.1/DTD/svg11.dtd"><svg t="1657704660840" class="icon" viewBox="0 0 1024 1024" version="1.1" xmlns="http://www.w3.org/2000/svg" p-id="608" width="200" height="200" xmlns:xlink="http://www.w3.org/1999/xlink"><defs><style type="text/css"></style></defs><path d="M646.42 98.16s-58.77 32.01-134.14 36.31c-75.37-4.3-134.14-36.31-134.14-36.31l-60.57 21.24 10.33 112.75 184.38 46.89 184.38-46.89 10.33-112.75-60.57-21.24zM512.28 278.83c0-5.05-0.11-113.37 0-144.29 0.11 30.92 0.01 139.21 0 144.29z" fill="#991F28" p-id="609"></path><path d="M848.2 430.56l0.56-261.45-202.34-70.95c-34.93 119.27-134.14 118.99-134.14 118.99s-99.21 0.28-134.14-118.99l-202.33 70.95 0.56 261.45s4.19 36.87-24.31 82.96v413.13H872.2s0.31-363.69 0.31-413.13c-28.51-46.09-24.31-82.96-24.31-82.96z" fill="#A81E23" p-id="610"></path><path d="M230.71 149.85l3.67 273.2s0.28 109.21-82.16 166.02c-0.38-48.11-0.25-64.08-0.25-75.92 7.51-13.43 16.04-23.55 22.78-60.17 0.52-2.83 1.61-10.61 1.61-15.97-0.08-126.3-0.63-268.01-0.63-268.01l54.98-19.15z" fill="#FFFFFF" p-id="611"></path><path d="M188.18 164.66l4.52 264.77s-0.67 74.02-40.72 108.99l0.1 28.51s64.4-37.54 64.06-136.63c-0.23-68.73-3.93-274.01-3.93-274.01l-24.03 8.37z" fill="#841A22" p-id="612"></path><path d="M371.81 423.06c7.22 7.74 7.93 19.11 8.31 28.59 0.48 11.72-1.46 25.14-7.22 35.87-4.57 8.52-11.17 13.55-19.32 15.05-4.73 0.88-7.09 1.33-11.81 2.27-7.38 1.47-11.06 2.24-18.41 3.87v-61.48-25.26-64.08c7.35-1.63 11.03-2.4 18.41-3.87 4.72-0.94 7.08-1.39 11.81-2.27 4.98-0.8 10.19 1.69 14.42 7.3 6.58 8.73 8 21.54 8.04 32.49 0.03 9.56-1.92 21.25-5.99 30.13 0.54 0.29 1.12 0.75 1.76 1.39z m-30.03-4.95c3.2-0.64 4.8-0.95 8-1.56 2.53-0.48 4.34-2.78 5.57-6.61 1.34-4.17 2.22-9.36 2.17-15.25-0.05-6-0.98-10.53-2.72-13.25-1.75-2.75-3.58-3.98-5.3-3.65-3.1 0.59-4.64 0.89-7.73 1.51 0.01 12.93 0.01 25.87 0.01 38.81z m19.82 36.59c0-4.95-1.09-8.74-3.26-10.94-1.96-1.98-4.94-2.64-8.56-1.95-3.2 0.61-4.8 0.92-8 1.56v36.22c4.72-0.94 7.08-1.39 11.81-2.27 1.99-0.49 3.86-2.44 5.57-5.84 1.63-3.25 2.44-8.86 2.44-16.78zM432.08 493.73c-9.85 0.77-17.3-2.93-21.1-10.97-6.27-13.28-6.48-29.16-6.84-44.12v-94.73c7.44-0.93 11.16-1.36 18.62-2.13v94.73c0 12.26 0.63 20.9 2.06 25.61 1.36 4.51 3.95 6.72 7.27 6.35 3.33-0.37 5.82-2.82 7.27-7.15 1.66-4.95 2.47-13.83 2.47-26.58v-94.73c7.47-0.61 11.2-0.88 18.68-1.33v94.73c0.13 14.7-0.97 30.71-6.46 44.25-3.68 9.04-12.08 15.3-21.97 16.07zM504.6 337.14V462.7c12.11-0.12 24.22 0.01 36.32 0.39v25.26c-18.36-0.45-36.66-0.45-55.02-0.01V337.52c7.48-0.23 11.22-0.3 18.7-0.38zM585.55 340.08v125.56c12.08 1 24.14 2.25 36.17 3.74v25.26c-18.26-2.15-36.5-3.84-54.85-5.09V338.73c7.48 0.46 11.21 0.73 18.68 1.35zM674.32 502.82c-15.76-3.12-24.8-23.02-29.4-36.73 4.91-6.76 7.36-10.12 12.27-16.81 3.1 9.43 7.67 25.46 17.14 28.28 2.92 0.87 6.05-0.43 7.87-3.14 1.73-2.57 2.67-5.41 2.58-8.04-0.49-13.19-9.32-26.14-16.29-37.26-8.68-13.86-19.78-29.67-20.15-46.47-0.21-9.69 2.04-18.39 6.27-24.63 4.7-6.93 11.91-9.88 19.86-8.04 15.04 3.48 23.57 22.36 28.59 35.74-4.76 6.6-7.14 9.92-11.9 16.58-3.93-9.9-8.19-24.16-16.68-27.06-1.66-0.57-3.99 0.44-5.43 2.16-1.45 1.72-2.42 4.77-2.18 8.34 0.81 11.91 11.32 25.15 17.65 35.64 8.68 14.37 18.72 31.24 18.68 48.88-0.02 11-2.7 19.7-8.11 26.1-5.08 5.99-12.11 8.18-20.77 6.46z" p-id="613"></path><path d="M385.75 125.57c59.42 29.73 126.53 32.15 126.53 32.15v-23.24c-73.46-5.28-134.14-36.32-134.14-36.32s-1.42 11.11 7.61 27.41zM646.43 98.15s-60.68 31.05-134.14 36.32v23.24s67.11-2.42 126.53-32.15c9.03-16.29 7.61-27.41 7.61-27.41z" fill="#E6E6E6" p-id="614"></path><path d="M646.47 98.16s-29.09 109.53-134.16 115.26C407.23 207.69 378.14 98.15 378.14 98.15s-1.53 0.49-50.14 17.59c43.56 158.68 184.31 150.12 184.31 150.12s140.85 8.19 184.41-150.48c-44.14-15.13-50.25-17.22-50.25-17.22z" fill="#FFFFFF" p-id="615"></path><path d="M660.06 102.93s-27.54 119.56-147.79 125.91c-120.25-6.36-147.79-125.91-147.79-125.91s-9.09 3.19-22.66 7.96c44.06 146.07 169.94 143.28 170.45 143.27 0.5 0.01 126.39 2.8 170.45-143.27-13.57-4.77-22.66-7.96-22.66-7.96z" fill="#841A22" p-id="616"></path><path d="M152.06 879.98H872.2v46.67H152.06z" fill="#891B28" p-id="617"></path><path d="M793.75 149.85l-3.67 273.2s-0.28 109.21 82.16 166.02c0.38-48.11 0.25-64.08 0.25-75.92-7.51-13.43-16.04-23.55-22.78-60.17-0.52-2.83-1.61-10.61-1.61-15.97 0.08-126.31 0.63-268.02 0.63-268.02l-54.98-19.14z" fill="#FFFFFF" p-id="618"></path><path d="M836.28 164.66l-4.52 264.77s0.67 74.02 40.72 108.99l-0.1 28.51s-64.4-37.54-64.06-136.63c0.23-68.73 3.93-274.01 3.93-274.01l24.03 8.37z" fill="#841A22" p-id="619"></path><path d="M511.95 926.78h359.91l0.31-414.25s-23.77-33.63-23.72-79c0.05-45.36 0.63-264.39 0.63-264.39L646.13 98.29s-74.23 34.36-134.19 36.31c0.01 46.29 0.01 792.18 0.01 792.18z" fill="#6B1A24" opacity=".21" p-id="620"></path><path d="M364.14 758.16c-1.16-20.27 5.17-40.16 18.97-59.66 6.9-9.36 18.11-21.06 33.63-35.1 22.99-19.49 33.92-36.65 32.77-51.47-1.16-12.47-7.2-19.49-18.11-21.06-15.52 0.79-23 14.04-22.42 39.77h-41.4c0-57.71 21.84-86.57 65.54-86.57 40.82 1.57 61.8 24.18 62.96 67.85 1.15 24.97-10.93 46.79-36.22 65.51-2.3 2.34-4.03 3.91-5.17 4.68-4.03 3.91-10.35 8.97-18.97 15.21-6.33 3.91-10.65 7.02-12.94 9.36h72.44v51.47H364.14zM566.12 684.46c0 9.36 2.01 17.16 6.04 23.4 4.02 4.68 9.49 7.42 16.39 8.19 12.64-0.77 19.54-8.96 20.7-24.57 0.57-17.15-9.2-24.95-29.32-23.4v-37.44c18.39 1.57 27.6-5.45 27.6-21.06 0-12.47-6.04-18.72-18.11-18.72s-18.69 7.42-19.84 22.23h-41.4c2.29-43.67 23.29-66.68 62.96-69.02 37.95 1.57 57.78 21.06 59.51 58.49 0 20.29-6.04 34.33-18.11 42.11 14.36 7.81 21.84 22.63 22.42 44.45-0.58 46.79-23.58 70.58-68.99 71.36-41.4-1.57-62.39-26.91-62.96-76.04h43.11z" fill="#1A1A1A" p-id="621"></path></svg>